<?xml version="1.0" encoding="UTF-8"?>
<svg width="40px" height="40px" viewBox="0 0 30 30" version="1.1" xmlns="http://www.w3.org/2000/svg" xmlns:xlink="http://www.w3.org/1999/xlink">
    <!-- Generator: Sketch 49.3 (51167) - http://www.bohemiancoding.com/sketch -->
    <title>secure</title>
    <desc>Created with Sketch.</desc>
    <defs></defs>
    <g id="Page-1" stroke="none" stroke-width="1" fill="none" fill-rule="evenodd">
        <g id="Artboard-Copy-2" transform="translate(-563.000000, -448.000000)">
            <g id="secure" transform="translate(563.000000, 448.000000)">
                <rect id="Rectangle-3-Copy" fill="#FFFFFF" x="0" y="0" width="40" height="40"></rect>
                <g id="005-safebox-copy" transform="translate(5.000000, 5.000000)" fill="#666666" fill-rule="nonzero">
                    <path d="M18.5714453,0 L1.42855469,0 C0.640859375,0 0,0.640859375 0,1.42855469 L0,5.13238281 L0,7.00558594 L0,12.9944531 L0,14.8676563 L0,18.5714844 C0,19.3591406 0.640859375,20 1.42855469,20 L18.5714062,20 C19.3591406,20 20,19.3591406 20,18.5714453 L20,1.42855469 C20,0.640859375 19.3591406,0 18.5714453,0 Z M0.952382812,5.60855469 L3.20960937,5.60855469 L3.20960937,6.529375 L0.952382812,6.529375 L0.952382812,5.60855469 Z M0.952382812,7.48175781 L2.30953125,7.48175781 L2.30953125,12.5182422 L0.952382812,12.5182422 L0.952382812,7.48175781 Z M0.952382812,13.470625 L3.20960937,13.470625 L3.20960937,14.3914453 L0.952382812,14.3914453 L0.952382812,13.470625 Z M19.0476172,18.5714453 C19.0476172,18.8340234 18.8339844,19.0476172 18.5714453,19.0476172 L1.42855469,19.0476172 C1.16597656,19.0476172 0.952382812,18.8339844 0.952382812,18.5714453 L0.952382812,15.3438281 L2.30953125,15.3438281 L2.30953125,17 C2.30953125,17.3807031 2.61929687,17.6904688 3,17.6904688 L17,17.6904688 C17.3807031,17.6904688 17.6904688,17.3807031 17.6904688,17 L17.6904688,3 C17.6904688,2.61929687 17.3807031,2.30953125 17,2.30953125 L3,2.30953125 C2.61929687,2.30953125 2.30953125,2.61929687 2.30953125,3 L2.30953125,4.65617188 L0.952382812,4.65617188 L0.952382812,1.42855469 C0.952382812,1.16597656 1.16601562,0.952382812 1.42855469,0.952382812 L18.5714063,0.952382812 C18.8339844,0.952382812 19.0475781,1.16601562 19.0475781,1.42855469 L19.0475781,18.5714453 L19.0476172,18.5714453 Z M3.68582031,12.5182422 L3.21429687,12.5182422 L3.21429687,7.48175781 L3.68582031,7.48175781 C3.94882812,7.48175781 4.16199219,7.26851563 4.16199219,7.00558594 L4.16199219,5.13238281 C4.16199219,4.86941406 3.94878906,4.65621094 3.68582031,4.65621094 L3.21429687,4.65621094 L3.21429687,3.21429687 L16.7857422,3.21429687 L16.7857422,16.7857422 L3.21429687,16.7857422 L3.21429687,15.3438281 L3.68582031,15.3438281 C3.94882812,15.3438281 4.16199219,15.1305859 4.16199219,14.8676562 L4.16199219,12.9944531 C4.16199219,12.7314844 3.94882812,12.5182422 3.68582031,12.5182422 Z" id="Shape"></path>
                    <path d="M13.2998437,6.70015625 C11.4802734,4.88066406 8.5196875,4.88066406 6.70019531,6.70015625 C4.88066406,8.51972656 4.88066406,11.4803125 6.70019531,13.2998828 C7.60996094,14.2096094 8.805,14.6644922 10,14.6644922 C11.1950391,14.6644922 12.3900391,14.2095703 13.2998437,13.2998828 C15.119375,11.4802734 15.119375,8.51972656 13.2998437,6.70015625 Z M13.7828125,9.57136719 L12.5876172,9.57136719 L12.5876172,9.57140625 C12.5226562,9.17417969 12.3677734,8.80011719 12.1328125,8.47332031 L12.9793359,7.62679687 C13.4372266,8.20082031 13.7048437,8.8771875 13.7828125,9.57136719 Z M10.4285547,6.21722656 C11.1227344,6.29519531 11.7991797,6.5628125 12.3731641,7.02070312 L11.5266406,7.86722656 C11.1998437,7.63226562 10.8257812,7.47730469 10.4285547,7.41242187 L10.4285547,6.21722656 Z M9.57144531,6.2171875 L9.57144531,7.41238281 C9.17421875,7.47734375 8.80015625,7.63222656 8.47335937,7.86722656 L7.62683594,7.02070312 C8.20082031,6.5628125 8.87722656,6.29515625 9.57144531,6.2171875 Z M7.02070312,7.62679687 L7.86722656,8.47332031 C7.63226562,8.80011719 7.47730469,9.17417969 7.41238281,9.57140625 L6.21722656,9.57140625 C6.29515625,8.87722656 6.5628125,8.20082031 7.02070312,7.62679687 Z M6.21722656,10.4285547 L7.41238281,10.4285547 C7.47734375,10.8257812 7.63222656,11.1998437 7.86722656,11.5266406 L7.02070312,12.3731641 C6.5628125,11.7991797 6.29515625,11.1227734 6.21722656,10.4285547 Z M9.57144531,13.7828125 C8.87726562,13.7048437 8.20082031,13.4371875 7.62683594,12.9792969 L8.47335937,12.1327734 C8.80015625,12.3677344 9.17421875,12.5226953 9.57144531,12.5876172 L9.57144531,13.7828125 Z M8.75136719,11.2485547 C8.41785156,10.9150781 8.23417969,10.4716797 8.23417969,10 C8.23417969,9.52828125 8.41785156,9.08492187 8.75136719,8.75144531 C9.08488281,8.41792969 9.52832031,8.23425781 10,8.23425781 C10.4716797,8.23425781 10.9150781,8.41792969 11.2485547,8.75144531 C11.5820703,9.08492187 11.7657422,9.52832031 11.7657422,10 C11.7657422,10.4717188 11.5820703,10.9150781 11.2485547,11.2485547 C10.9150781,11.5820703 10.4716406,11.7657422 10,11.7657422 C9.52835937,11.7657422 9.08492187,11.5821094 8.75136719,11.2485547 Z M10.4285547,13.7828516 L10.4285547,12.5876172 C10.8257812,12.5226953 11.1998437,12.3677734 11.5266406,12.1328125 L12.3731641,12.9793359 C11.7991797,13.4372266 11.1227734,13.7049219 10.4285547,13.7828516 Z M12.9792969,12.373125 L12.1327734,11.5266016 C12.3677344,11.1998047 12.5226953,10.8257422 12.5875781,10.4285156 L13.7827734,10.4285156 C13.7048437,11.1227734 13.4371875,11.7991797 12.9792969,12.373125 Z" id="Shape"></path>
                </g>
            </g>
        </g>
    </g>
</svg>