<svg width="113" height="58" viewBox="0 0 113 58" fill="none" xmlns="http://www.w3.org/2000/svg">
<path d="M83.8897 53C97.2381 53 108.059 42.2548 108.059 29C108.059 15.7452 97.2381 5 83.8897 5C70.5413 5 59.7202 15.7452 59.7202 29C59.7202 42.2548 70.5413 53 83.8897 53Z" fill="#DC0037"/>
<path d="M29.2809 18.0423V21.8686H27.8009V18.0683L24.7603 12.7983H26.4537L28.5739 16.7306L30.7076 12.7983H32.3079L29.2809 18.0423ZM31.6678 18.625C31.6678 16.3078 32.9344 15.182 34.8015 15.182C36.6685 15.182 37.9487 16.3203 37.9487 18.625C37.9487 20.9296 36.6821 22.041 34.8015 22.041C32.9209 22.041 31.6678 20.9556 31.6678 18.625ZM36.4541 18.625C36.4541 17.0099 35.8538 16.3348 34.8005 16.3348C33.7472 16.3348 33.1604 17.0099 33.1604 18.625C33.1604 20.24 33.7608 20.8892 34.8005 20.8892C35.8402 20.8892 36.4541 20.24 36.4541 18.625ZM44.5584 15.2754V21.6172C43.6516 21.8821 42.6652 22.041 41.7448 22.041C39.7847 22.041 39.0777 21.0615 39.0777 19.5389V15.4478L40.4908 15.2754V19.354C40.4908 20.1091 40.6246 20.8632 41.8913 20.8632C42.318 20.8632 42.771 20.7967 43.1444 20.6908V15.4478L44.5584 15.2754ZM48.7667 16.4012C48.34 16.4012 47.8735 16.5072 47.5001 16.6921V21.8696H46.0996V15.3158L46.9395 15.5807C47.6194 15.3293 48.2867 15.1839 48.8725 15.1839C49.1528 15.1839 49.4457 15.2109 49.6988 15.2638L49.8326 16.5081C49.5659 16.4551 49.1925 16.4022 48.7658 16.4022L48.7667 16.4012ZM23.2667 32.4336C24.2938 32.4336 24.8001 32.1552 24.8001 31.4936C24.8001 30.7386 24.1871 30.726 23.1998 30.6991C21.84 30.6596 20.7867 30.2618 20.7867 28.8191C20.7867 27.3765 21.7605 26.7004 23.6265 26.7004C24.2269 26.7004 24.9737 26.8063 25.64 27.0182L25.7738 28.2365C25.2268 28.0776 24.4005 27.8792 23.6808 27.8792C22.6004 27.8792 22.1872 28.171 22.1872 28.7797C22.1872 29.4548 22.9069 29.4817 23.6944 29.5077C25.028 29.5472 26.2142 29.892 26.2142 31.4936C26.2142 32.8708 25.3073 33.5989 23.3074 33.5989C22.4404 33.5989 21.7207 33.4795 20.9603 33.2281L20.8401 32.0098C21.3997 32.2082 22.227 32.4336 23.2667 32.4336ZM31.3739 32.1552L31.3468 33.3071C30.7736 33.5055 30.2663 33.5854 29.7998 33.5854C28.5196 33.5854 27.8261 33.0297 27.8261 31.4801V28.0506H26.5856L26.7321 26.9122H27.8251V25.2047L29.2256 25.0323V26.9122H31.2255L31.0926 28.0506H29.2256V31.4137C29.2256 32.0888 29.4128 32.4461 30.1189 32.4461C30.4661 32.4461 30.8793 32.3536 31.372 32.1552H31.3739ZM31.8957 30.1819C31.8957 27.8647 33.1624 26.7389 35.0294 26.7389C36.8964 26.7389 38.1757 27.8773 38.1757 30.1819C38.1757 32.4865 36.909 33.5979 35.0294 33.5979C33.1498 33.5979 31.8957 32.5125 31.8957 30.1819ZM36.683 30.1819C36.683 28.5668 36.0827 27.8917 35.0294 27.8917C33.9761 27.8917 33.3893 28.5668 33.3893 30.1819C33.3893 31.797 33.9897 32.4461 35.0294 32.4461C36.0691 32.4461 36.683 31.797 36.683 30.1819ZM42.06 27.9582C41.6333 27.9582 41.1668 28.0641 40.7934 28.249V33.4265H39.3929V26.8728L40.2328 27.1376C40.9127 26.8862 41.5799 26.7408 42.1658 26.7408C42.446 26.7408 42.7389 26.7678 42.9921 26.8208L43.1259 28.0651C42.8592 28.0121 42.4858 27.9591 42.0591 27.9591L42.06 27.9582ZM49.7667 26.9122L47.4467 33.7183C46.8338 35.4923 46.3799 36.2734 44.8601 36.2734C44.5129 36.2734 43.9804 36.1934 43.5401 36.075L43.38 34.8037C43.8601 34.9886 44.3402 35.0946 44.7136 35.0946C45.4876 35.0946 45.7805 34.8692 46.2334 33.5324L46.2732 33.4265H45.7398L43.5924 26.9122H45.0463L46.6999 32.1427L48.4205 26.9122H49.7667ZM14.1333 40.8518V44.9825H12.7202V40.9308C12.7202 39.9908 12.3333 39.4746 11.4274 39.4746C11.0278 39.4746 10.601 39.6066 10.1869 39.8454C10.28 40.1498 10.3208 40.5071 10.3208 40.9048V44.9834H8.90764V40.9453C8.90764 39.9254 8.46732 39.4756 7.57406 39.4756C7.18708 39.4756 6.76033 39.5815 6.40051 39.7665V44.9834H5V38.4297L5.82634 38.6811C6.45288 38.4422 7.10658 38.2968 7.73312 38.2968C8.50611 38.2968 9.12004 38.4692 9.5594 38.84C10.1995 38.5087 10.893 38.2968 11.6398 38.2968C13.2401 38.2968 14.1333 39.1578 14.1333 40.8518ZM20.7198 40.4416V44.7446C19.9468 44.97 19.04 45.1549 18.0662 45.1549C16.3195 45.1549 15.2924 44.5587 15.2924 43.0226C15.2924 41.4865 16.399 41.0762 17.7461 40.9973L19.3193 40.9048V40.5205C19.3193 39.9379 19.1059 39.4352 17.9324 39.4352C17.1991 39.4352 16.3718 39.621 15.8122 39.7925L15.9461 38.6011C16.5997 38.4027 17.3466 38.2833 17.9867 38.2833C20.0797 38.2833 20.7198 39.1973 20.7198 40.4416ZM18.0798 44.0165C18.5463 44.0165 19.0002 43.9366 19.3203 43.8711V41.9777L17.9071 42.0576C17.0003 42.1241 16.6802 42.3889 16.6802 43.0245C16.6802 43.6997 17.1332 44.0175 18.0808 44.0175L18.0798 44.0165ZM26.4188 43.7122L26.3916 44.864C25.8184 45.0624 25.3112 45.1423 24.8447 45.1423C23.5644 45.1423 22.871 44.5867 22.871 43.0371V39.6075H21.6305L21.777 38.4692H22.87V36.7616L24.2705 36.5893V38.4692H26.2704L26.1375 39.6075H24.2705V42.9706C24.2705 43.6457 24.4577 44.003 25.1638 44.003C25.511 44.003 25.9242 43.9106 26.4169 43.7122H26.4188ZM31.7512 43.7122L31.724 44.864C31.1508 45.0624 30.6436 45.1423 30.1771 45.1423C28.8968 45.1423 28.2034 44.5867 28.2034 43.0371V39.6075H26.9629L27.1094 38.4692H28.2024V36.7616L29.6029 36.5893V38.4692H31.6028L31.4699 39.6075H29.6029V42.9706C29.6029 43.6457 29.7901 44.003 30.4962 44.003C30.8434 44.003 31.2566 43.9106 31.7493 43.7122H31.7512ZM38.2533 42.203H33.8801C34.0139 43.5533 34.72 44.004 35.974 44.004C36.7073 44.004 37.3474 43.8711 37.9604 43.6467L37.907 44.7985C37.2533 45.0239 36.5734 45.1558 35.8266 45.1558C33.6929 45.1558 32.4127 44.1889 32.4127 41.8062C32.4127 39.4236 33.7065 38.2978 35.4658 38.2978C37.3862 38.2978 38.293 39.5295 38.293 41.5549C38.293 41.8467 38.2659 42.0701 38.2533 42.203ZM33.8801 41.1562H36.8935C36.8663 40.0833 36.427 39.3957 35.4532 39.3957C34.5735 39.3957 34.0129 40.0448 33.8801 41.1562ZM42.2986 39.5151C41.8719 39.5151 41.4054 39.621 41.032 39.8059V44.9834H39.6315V38.4297L40.4714 38.6945C41.1513 38.4432 41.8185 38.2978 42.4043 38.2978C42.6846 38.2978 42.9775 38.3247 43.2307 38.3777L43.3645 39.622C43.0978 39.569 42.7244 39.5161 42.2977 39.5161L42.2986 39.5151ZM46.6068 43.9905C47.6339 43.9905 48.1402 43.7122 48.1402 43.0505C48.1402 42.2955 47.5272 42.283 46.5399 42.256C45.1801 42.2165 44.1268 41.8188 44.1268 40.3761C44.1268 38.9334 45.1006 38.2573 46.9667 38.2573C47.567 38.2573 48.3138 38.3632 48.9801 38.5751L49.114 39.7934C48.567 39.6345 47.7406 39.4361 47.02 39.4361C45.9395 39.4361 45.5264 39.7279 45.5264 40.3366C45.5264 41.0117 46.246 41.0387 47.0336 41.0647C48.3672 41.1042 49.5533 41.4489 49.5533 43.0505C49.5533 44.4277 48.6465 45.1558 46.6466 45.1558C45.7795 45.1558 45.0599 45.0364 44.2995 44.7851L44.1792 43.5668C44.7388 43.7652 45.567 43.9905 46.6068 43.9905Z" fill="black"/>
<path d="M102.567 22.1054C103.343 24.2222 103.767 26.5076 103.767 28.8912C103.767 31.2748 103.343 33.5602 102.567 35.6771L105.248 36.6459C106.135 34.2267 106.619 31.6148 106.619 28.8912C106.619 26.1676 106.135 23.5558 105.248 21.1365L102.567 22.1054ZM63.1122 38.4719C66.7474 46.1987 74.6431 51.5515 83.7988 51.5515C92.9544 51.5515 100.85 46.1977 104.485 38.4719L101.9 37.2739C98.7184 44.0347 91.81 48.7191 83.7988 48.7191C75.7876 48.7191 68.8792 44.0347 65.6979 37.2739L63.1122 38.4719ZM65.0307 22.1054L62.3499 21.1356C61.4625 23.5548 60.9785 26.1667 60.9785 28.8903C60.9785 31.6138 61.4625 34.2257 62.3499 36.645L65.0307 35.6761C64.2548 33.5593 63.8309 31.2739 63.8309 28.8903C63.8309 26.5066 64.2548 24.2223 65.0307 22.1054ZM104.485 19.3105C100.85 11.5847 92.9544 6.23096 83.7988 6.23096C74.6431 6.23096 66.7474 11.5847 63.1122 19.3105L65.6979 20.5086C68.8792 13.7478 75.7876 9.06337 83.7988 9.06337C91.81 9.06337 98.7184 13.7478 101.9 20.5086L104.485 19.3105ZM79.4246 31.3981C78.9921 31.3981 78.6119 31.3461 78.093 31.2267V26.5606C78.5227 26.4623 78.9475 26.3863 79.4246 26.3863C80.7214 26.3863 81.3431 26.9699 81.3431 28.8922C81.3431 30.8145 80.7204 31.3981 79.4246 31.3981ZM79.8048 24.359C79.2355 24.359 78.6235 24.4591 78.093 24.5718V19.8267L75.7071 20.0839V32.8215C76.6925 33.1307 77.9718 33.4225 79.2336 33.4225C82.1034 33.4225 83.7978 32.4613 83.7978 28.8903C83.7978 25.3192 82.1034 24.358 79.8039 24.358M89.0303 27.8444C90.8624 27.879 92.4016 28.2045 92.4016 30.54C92.4016 32.3939 91.4511 33.4244 88.3912 33.4244C87.1294 33.4244 86.2652 33.253 85.3487 32.9265L85.1586 30.9695C85.8675 31.193 86.8355 31.3991 88.2011 31.3991C89.4289 31.3991 89.9992 31.245 89.9992 30.5236C89.9992 29.6992 89.3426 29.7339 88.0798 29.7166C86.1265 29.6819 84.9675 29.2013 84.9675 27.3301C84.9675 25.4588 86.0741 24.3599 88.944 24.3599C89.6181 24.3599 90.6384 24.4803 91.5539 24.7548L91.744 26.7118C91.0351 26.5403 89.9119 26.3853 89.1166 26.3853C87.8025 26.3853 87.3709 26.5394 87.3709 27.2607C87.3709 27.8097 88.01 27.827 89.0303 27.8444ZM71.7141 31.3288C71.4028 31.3798 70.9877 31.4492 70.5561 31.4492C69.5193 31.4492 69.0867 31.1227 69.0867 30.4187C69.0867 29.7147 69.5018 29.5606 70.366 29.5086L71.7141 29.4228V31.3288ZM70.2273 24.359C69.4669 24.359 68.4466 24.4794 67.5301 24.7538L67.34 26.7108C68.1003 26.5394 69.2244 26.3843 69.9674 26.3843C71.2117 26.3843 71.7131 26.4874 71.7131 27.4832V27.7577L70.0537 27.8434C68.2216 27.9464 66.6824 28.2556 66.6824 30.539C66.6824 32.393 67.6329 33.4235 70.5027 33.4235C71.8344 33.4235 73.1127 33.1317 74.099 32.8225V27.3291C74.099 25.3895 73.0109 24.359 70.2273 24.359ZM98.5283 31.3288C98.217 31.3798 97.8019 31.4492 97.3703 31.4492C96.3335 31.4492 95.9009 31.1227 95.9009 30.4187C95.9009 29.7147 96.3161 29.5606 97.1802 29.5086L98.5283 29.4228V31.3288ZM97.0415 24.359C96.2811 24.359 95.2608 24.4794 94.3443 24.7538L94.1542 26.7108C94.9146 26.5394 96.0387 26.3843 96.7816 26.3843C98.0259 26.3843 98.5274 26.4874 98.5274 27.4832V27.7577L96.8679 27.8434C95.0358 27.9464 93.4966 28.2036 93.4966 30.539C93.4966 32.393 94.4471 33.4235 97.317 33.4235C98.6486 33.4235 99.9269 33.1317 100.913 32.8225V27.3291C100.913 25.3895 99.8251 24.359 97.0415 24.359Z" fill="white"/>
</svg>
