<?xml version="1.0" encoding="UTF-8"?>
<svg viewBox="0 0 68 69" version="1.1" xmlns="http://www.w3.org/2000/svg" xmlns:xlink="http://www.w3.org/1999/xlink">
    <!-- Generator: Sketch 46.2 (44496) - http://www.bohemiancoding.com/sketch -->
    <title>NedbankIcon</title>
    <desc>Created with Sketch.</desc>
    <defs></defs>
    <g id="Symbols" stroke="none" stroke-width="1" fill="none" fill-rule="evenodd">
        <g id="Mobile-modal-header" transform="translate(0.000000, -2.000000)" fill-rule="nonzero">
            <g id="NedbankIcon" transform="translate(0.000000, 2.000000)">
                <polygon id="Shape" fill="#FFFFFF" points="49.5005313 0 33.9638682 10.3716075 18.4272051 0 0 12.388309 0 56.6837161 18.4272051 69 33.9638682 58.6283925 49.5005313 69 68 56.6837161 68 12.3162839"></polygon>
                <path d="M17.7700348,44.2372093 L30.0836237,52.744186 L17.7700348,61.2511628 L17.7700348,44.2372093 Z M64,13.3813953 L48.5900116,3 L33.1800232,13.3813953 L17.7700348,3 L2,13.3813953 L2,54.6186047 L17.7700348,65 L33.1800232,54.6186047 L48.5900116,65 L64,54.6186047 L64,13.3813953 Z M48.5900116,27.655814 L48.5900116,6.82093023 L60.543554,14.8953488 L60.543554,52.3116279 L5.09639954,15.327907 L17.7700348,6.82093023 L48.5900116,27.655814 Z" id="Shape" fill="#00643C"></path>
            </g>
        </g>
    </g>
</svg>